<?xml version="1.0" encoding="utf-8"?>
<!-- Generator: Adobe Illustrator 22.1.0, SVG Export Plug-In . SVG Version: 6.00 Build 0)  -->
<svg version="1.1" id="Layer_1" xmlns="http://www.w3.org/2000/svg" xmlns:xlink="http://www.w3.org/1999/xlink" x="0px" y="0px"
	 viewBox="0 0 512 512" style="enable-background:new 0 0 512 512;" xml:space="preserve">
<g>
	<path d="M432.8,31H79.2C52.6,31,31,52.6,31,79.2v353.6c0,26.6,21.6,48.2,48.2,48.2h353.6c26.6,0,48.2-21.6,48.2-48.2V79.2
		C481,52.6,459.4,31,432.8,31z M125.4,416.7c-7.1,0-13.1-4.9-14.7-11.7l-15.1-65.3c-1.6-7.1,2-14.4,8.7-17.2l70.3-30.1
		c6.2-2.6,13.3-0.9,17.6,4.3l31.1,38.1c49.2-23.1,88.7-63.1,111.3-111.3l-38.1-31.1c-5.2-4.3-7-11.4-4.3-17.6l30.1-70.3
		c2.9-6.7,10.1-10.4,17.2-8.7l65.3,15.1c6.8,1.6,11.7,7.7,11.7,14.7C416.7,286.4,286.2,416.7,125.4,416.7z"/>
</g>
</svg>
